<?xml version="1.0" encoding="iso-8859-1"?>
<!-- Generator: Adobe Illustrator 19.0.0, SVG Export Plug-In . SVG Version: 6.00 Build 0)  -->
<svg version="1.1" id="Capa_1" xmlns="http://www.w3.org/2000/svg" xmlns:xlink="http://www.w3.org/1999/xlink" x="0px" y="0px"
	 viewBox="0 0 512 512" style="enable-background:new 0 0 512 512;" xml:space="preserve">
<path style="fill:#E2F1F6;" d="M45.476,134.05L8.508,78.594C7.851,77.609,7.5,76.451,7.5,75.266V63.204c0-3.314,2.686-6,6-6h42.833
	v79.518h-5.861C48.465,136.724,46.59,135.721,45.476,134.05z"/>
<path style="fill:#C5DDE6;" d="M27.257,57.204v49.517l18.219,27.33c1.114,1.67,2.989,2.673,4.996,2.672h5.861V57.204H27.257z"/>
<path style="fill:#585D60;" d="M53.258,256.002c-3.314,0-6-2.686-6-6V63.204c0-3.314,2.686-6,6-6h176.613v192.798
	c0,3.314-2.686,6-6,6H53.258z"/>
<path style="fill:#4D5255;" d="M172.419,57.204c-3.314,0-6,2.686-6,6v12.063c0,1.185,0.351,2.342,1.008,3.328l36.97,55.458
	c0.471,0.707,1.085,1.285,1.781,1.728v114.221c0,3.314-2.686,6-6,6h23.693c3.314,0,6-2.686,6-6V57.204H172.419z"/>
<rect id="SVGCleanerId_0" x="317.71" y="365.34" style="fill:#BDCFCF;" width="150.75" height="39.76"/>
<g>
	<rect id="SVGCleanerId_0_1_" x="317.71" y="365.34" style="fill:#BDCFCF;" width="150.75" height="39.76"/>
</g>
<rect x="317.71" y="385.1" style="fill:#9DADAD;" width="150.83" height="20"/>
<rect x="265.94" y="292.04" style="fill:#BDCFCF;" width="39.761" height="60.47"/>
<rect x="285.7" y="292.04" style="fill:#9DADAD;" width="20" height="60.47"/>
<circle style="fill:#FFB408;" cx="285.82" cy="385.22" r="39.759"/>
<path style="fill:#E89606;" d="M285.818,345.463c-3.454,0-6.805,0.442-10,1.27c17.118,4.435,29.76,19.985,29.76,38.49
	c0,18.505-12.642,34.055-29.76,38.49c3.195,0.828,6.546,1.27,10,1.27c21.959,0,39.76-17.801,39.76-39.76
	C325.578,363.264,307.777,345.463,285.818,345.463z"/>
<circle style="fill:#585D60;" cx="285.82" cy="385.22" r="9.319"/>
<path style="fill:#FFB408;" d="M335.521,275.881c0,10.98-8.901,19.881-19.881,19.881H256c-10.98,0-19.881-8.901-19.881-19.881
	v-23.608h99.4L335.521,275.881z"/>
<path style="fill:#E89606;" d="M335.519,252.273h-20l0.002,23.608c0,10.98-8.901,19.881-19.881,19.881h20
	c10.98,0,19.881-8.901,19.881-19.881L335.519,252.273z"/>
<circle style="fill:#0079A6;" cx="136.72" cy="156.6" r="59.64"/>
<path style="fill:#81898C;" d="M226.179,256.002V132.997h228.619l0.002,83.247c0,21.959-17.801,39.76-39.76,39.76L226.179,256.002z"
	/>
<path style="fill:#687073;" d="M454.798,132.997h-20l0.002,83.247c0,21.956-17.796,39.754-39.75,39.76h19.989
	c21.959,0,39.76-17.801,39.76-39.76L454.798,132.997z"/>
<circle style="fill:#00CAFF;" cx="136.72" cy="156.6" r="52.15"/>
<path style="fill:#00B2E3;" d="M136.719,104.453c-3.421,0-6.762,0.339-10,0.968c24.016,4.666,42.15,25.802,42.15,51.182
	s-18.134,46.516-42.15,51.182c3.238,0.629,6.579,0.968,10,0.968c28.802,0,52.15-23.349,52.15-52.15
	C188.869,127.801,165.521,104.453,136.719,104.453z"/>
<path style="fill:#E2F1F6;" d="M186.421,63.204v12.063c0,1.185,0.351,2.342,1.008,3.328l36.97,55.458
	c1.113,1.669,2.986,2.672,4.992,2.672h249.228c3.314,0,6-2.686,6-6l0.001-33.763c0-21.959-17.801-39.76-39.76-39.76l-252.44,0.002
	C189.107,57.204,186.421,59.89,186.421,63.204z"/>
<path style="fill:#C5DDE6;" d="M444.86,57.201h-19.994c21.956,0.003,39.754,17.803,39.754,39.76l-0.001,33.763c0,3.314-2.686,6-6,6
	h20c3.314,0,6-2.686,6-6l0.001-33.763C484.62,75.002,466.819,57.201,444.86,57.201z"/>
<rect x="226.18" y="159.04" style="fill:#00CAFF;" width="228.62" height="15"/>
<rect x="434.8" y="159.04" style="fill:#00B2E3;" width="20" height="15"/>
<path style="fill:#FFB408;" d="M498.5,454.799h-27.76c-3.314,0-6-2.686-6-6V321.643c0-3.314,2.686-6,6-6h27.76c3.314,0,6,2.686,6,6
	v127.156C504.5,452.113,501.814,454.799,498.5,454.799z"/>
<path style="fill:#E89606;" d="M498.5,434.799h-27.76c-3.314,0-6-2.686-6-6v20c0,3.314,2.686,6,6,6h27.76c3.314,0,6-2.686,6-6v-20
	C504.5,432.113,501.814,434.799,498.5,434.799z"/>
<path d="M504.5,308.144h-39.76c-4.142,0-7.5,3.358-7.5,7.5v42.199H324.302c-3.06-4.288-6.815-8.043-11.103-11.103v-43.478h2.441
	c15.098,0,27.381-12.283,27.381-27.381l0,0l-0.002-12.377l72.02,0.001c26.06,0,47.261-21.201,47.261-47.261l-0.001-49.676
	c0-0.008,0.001-0.016,0.001-0.024s-0.001-0.016-0.001-0.024l-0.001-22.295h22.32c4.142,0,7.5-3.357,7.5-7.5l0.002-39.764
	c0-26.06-21.201-47.261-47.261-47.261L186.42,49.704H47.258H7.5c-4.142,0-7.5,3.358-7.5,7.5v19.879c0,1.48,0.438,2.928,1.259,4.16
	l38.499,57.751v117.008c0,4.142,3.358,7.5,7.5,7.5h178.921c0.003,0,0.006,0,0.01,0h2.431v12.379
	c0,15.098,12.283,27.381,27.381,27.381h2.438v43.478c-12.02,8.577-19.879,22.625-19.879,38.483c0,26.059,21.2,47.26,47.259,47.26
	c15.858,0,29.907-7.86,38.483-19.879H457.24V454.8c0,4.142,3.358,7.5,7.5,7.5h39.76c4.142,0,7.5-3.358,7.5-7.5V315.644
	C512,311.501,508.642,308.144,504.5,308.144z M415.04,248.504l-79.469-0.001c-0.018,0-0.034-0.003-0.052-0.003H236.12
	c-0.007,0-0.013,0.001-0.02,0.001h-2.42v-74.458H447.3l0.001,42.2C447.3,234.032,432.828,248.504,415.04,248.504z M477.12,96.961
	l-0.001,32.264h-22.32h-27.023h-4c-4.142,0-7.5,3.358-7.5,7.5s3.358,7.5,7.5,7.5h4h19.523v14.819h-213.62v-14.819h151.542h1.201
	c4.142,0,7.5-3.358,7.5-7.5s-3.358-7.5-7.5-7.5h-1.201H230.193L193.92,74.813V64.704l250.939-0.003
	C462.648,64.701,477.12,79.173,477.12,96.961z M15,74.813V64.704h24.758v47.248L15,74.813z M54.758,136.731c0-0.002,0-0.004,0-0.006
	V64.704H178.92v12.379c0,1.48,0.438,2.928,1.259,4.16l38.5,57.752v26.842c-0.022,0.233-0.036,0.468-0.036,0.706
	s0.014,0.474,0.036,0.706v81.252H54.758V136.731z M243.62,275.881v-12.379l84.4,0.001l0.001,12.378
	c0,6.827-5.554,12.381-12.381,12.381H256C249.174,288.262,243.62,282.708,243.62,275.881z M273.438,303.264h24.761v36.356
	c-3.949-1.073-8.097-1.656-12.38-1.656s-8.432,0.583-12.38,1.656L273.438,303.264L273.438,303.264z M285.818,417.482
	c-17.788,0-32.259-14.472-32.259-32.26c0-17.788,14.472-32.259,32.259-32.259c17.788,0,32.26,14.472,32.26,32.259
	C318.078,403.011,303.606,417.482,285.818,417.482z M457.238,397.603H331.422c1.073-3.949,1.656-8.097,1.656-12.38
	c0-4.284-0.583-8.432-1.656-12.38h125.816V397.603z M497,447.299h-24.76V323.144H497V447.299z"/>
<circle cx="285.82" cy="385.22" r="9.319"/>
<path d="M136.719,89.462c-37.021,0-67.141,30.119-67.141,67.141c0,37.021,30.119,67.14,67.141,67.14s67.141-30.119,67.141-67.14
	C203.859,119.582,173.74,89.462,136.719,89.462z M136.719,208.743c-28.75,0-52.141-23.39-52.141-52.14s23.39-52.141,52.141-52.141
	s52.141,23.39,52.141,52.141C188.859,185.353,165.469,208.743,136.719,208.743z"/>
<g>
</g>
<g>
</g>
<g>
</g>
<g>
</g>
<g>
</g>
<g>
</g>
<g>
</g>
<g>
</g>
<g>
</g>
<g>
</g>
<g>
</g>
<g>
</g>
<g>
</g>
<g>
</g>
<g>
</g>
</svg>
