<svg id="Layer_1" height="512" viewBox="0 0 512 512" width="512" xmlns="http://www.w3.org/2000/svg" data-name="Layer 1"><path d="m11 293.979v28.3a21.8 21.8 0 0 0 21.81 21.77h300.77v-50.07z" fill="#565e6d"/><path d="m289.1 293.98v13.06a10.906 10.906 0 0 1 -10.91 10.89h-65.43a10.9 10.9 0 0 1 -10.91-10.89v-13.06z" fill="#4a5160"/><path d="m419.96 11h-348.98a21.8 21.8 0 0 0 -21.81 21.77v261.21h284.41l108.2-68.26v-192.951a21.8 21.8 0 0 0 -21.82-21.769z" fill="#6d7486"/><path d="m81.89 43.649v217.68h251.69l75.48-35.61v-182.07z" fill="#e8ebed"/><path d="m476.22 165.719h-140.78a21.864 21.864 0 0 0 -21.86 21.86v291.55a21.866 21.866 0 0 0 21.86 21.871h140.78a21.866 21.866 0 0 0 21.86-21.87v-291.551a21.864 21.864 0 0 0 -21.86-21.86z" fill="#c2e0f2"/><path d="m358.45 165.719v14.57a14.583 14.583 0 0 0 14.58 14.58h65.6a14.583 14.583 0 0 0 14.58-14.58v-14.57z" fill="#6d7486"/><path d="m41 322.279v-28.3h-30v28.3a21.8 21.8 0 0 0 21.81 21.77h30a21.8 21.8 0 0 1 -21.81-21.77z" fill="#4a5160"/><path d="m81.89 43.649h30v217.68h-30z" fill="#c6cacc"/><path d="m343.58 479.129v-291.55a21.864 21.864 0 0 1 21.86-21.86h-30a21.864 21.864 0 0 0 -21.86 21.86v291.55a21.866 21.866 0 0 0 21.86 21.871h30a21.866 21.866 0 0 1 -21.86-21.871z" fill="#a1c4d6"/><g fill="#284268"><path d="m377.147 185.563h38.417a6 6 0 0 0 0-12h-38.417a6 6 0 0 0 0 12z"/><path d="m433.057 187.021a7.458 7.458 0 1 0 -7.458-7.458 7.466 7.466 0 0 0 7.458 7.458z"/><path d="m116.112 75.323a6 6 0 0 0 -6 6v12.265a6 6 0 0 0 12 0v-12.265a6 6 0 0 0 -6-6z"/><path d="m116.112 108.186a6 6 0 0 0 -6 6v90.914a6 6 0 0 0 12 0v-90.91a6 6 0 0 0 -6-6.004z"/><path d="m504.084 217.746v-30.164a27.9 27.9 0 0 0 -27.866-27.867h-28.443v-126.948a27.82 27.82 0 0 0 -27.811-27.767h-348.983a27.82 27.82 0 0 0 -27.811 27.767v255.214h-32.17a6 6 0 0 0 -6 6v28.3a27.821 27.821 0 0 0 27.812 27.768h274.766v129.085a27.9 27.9 0 0 0 27.866 27.866h140.774a27.9 27.9 0 0 0 27.866-27.866v-236.534a5.989 5.989 0 0 0 2.916-5.136v-14.578a5.992 5.992 0 0 0 -2.916-5.14zm-56.876-46.031v8.578a8.587 8.587 0 0 1 -8.577 8.577h-65.6a8.587 8.587 0 0 1 -8.577-8.577v-8.578zm-139.63 166.332h-274.766a15.808 15.808 0 0 1 -15.812-15.768v-22.3h178.85v7.061a16.914 16.914 0 0 0 16.905 16.884h65.435a16.915 16.915 0 0 0 16.91-16.882v-7.061h12.482zm-99.728-31.005v-7.061h75.25v7.061a4.9 4.9 0 0 1 -4.906 4.884h-65.439a4.9 4.9 0 0 1 -4.905-4.884zm99.728-119.46v36.4a6 6 0 0 0 -3.984 5.646v14.577a6 6 0 0 0 3.984 5.645v5.478h-163.466a6 6 0 0 0 0 12h159.482v13.322a6 6 0 0 0 3.984 5.645v1.686h-252.408v-255.214a15.807 15.807 0 0 1 15.811-15.767h348.983a15.807 15.807 0 0 1 15.811 15.767v126.948h-20.717v-116.064a6 6 0 0 0 -6-6h-327.171a6 6 0 0 0 -6 6v217.678a6 6 0 0 0 6 6h22.225a6 6 0 1 0 0-12h-16.225v-205.678h315.171v110.064h-67.614a27.9 27.9 0 0 0 -27.866 27.867zm184.506 291.552a15.883 15.883 0 0 1 -15.866 15.866h-140.774a15.883 15.883 0 0 1 -15.866-15.866v-291.552a15.884 15.884 0 0 1 15.866-15.867h17.01v8.578a20.6 20.6 0 0 0 20.577 20.577h65.6a20.6 20.6 0 0 0 20.577-20.577v-8.578h17.01a15.884 15.884 0 0 1 15.866 15.867z"/></g></svg>