<svg id="Capa_1" enable-background="new 0 0 512.001 512.001" height="512" viewBox="0 0 512.001 512.001" width="512" xmlns="http://www.w3.org/2000/svg"><g><path d="m437.001 46.004h-61c-8.291 0-15 6.709-15 15v75l91 52.5v-127.5c0-8.291-6.709-15-15-15z" fill="#3b4a51"/><path d="m256.001 35.941-226 196.871v248.192c0 8.291 6.709 15 15 15h166l30-30h15 15l30 30h166c8.291 0 15-6.709 15-15v-248.192z" fill="#fff7cc"/><path d="m301.001 496.004h166c8.291 0 15-6.709 15-15v-248.192l-226-196.871v430.063h15z" fill="#ffe6b3"/><path d="m506.874 229.71-241-210c-2.827-2.476-6.35-3.713-9.873-3.713s-7.046 1.238-9.873 3.713l-241 210c-6.24 5.464-6.87 14.941-1.421 21.167 5.464 6.24 14.927 6.841 21.167 1.421l231.127-201.357 231.127 201.357c6.194 5.427 15.685 4.845 21.167-1.421 5.449-6.225 4.819-15.703-1.421-21.167z" fill="#ff7d43"/><path d="m508.295 250.877c5.449-6.226 4.819-15.703-1.421-21.167l-241-210c-2.827-2.476-6.35-3.713-9.873-3.713v34.944l231.127 201.357c6.194 5.428 15.685 4.845 21.167-1.421z" fill="#ff4b00"/><path d="m291.025 172.376c-4.526-1.582-9.653-.908-13.667 1.875-3.984 2.813-6.357 7.383-6.357 12.261v78.281l-15 15-15-15v-78.281c0-4.878-2.373-9.448-6.357-12.261-3.97-2.798-9.082-3.501-13.667-1.875-41.851 14.897-69.976 54.521-69.976 98.628 0 40.503 23.716 77.227 60 94.497v130.503h45 45v-130.503c36.284-17.271 60-53.994 60-94.497 0-44.106-28.126-83.73-69.976-98.628z" fill="#596c76"/><path d="m301.001 365.501c36.284-17.271 60-53.994 60-94.497 0-44.106-28.126-83.73-69.976-98.628-4.526-1.582-9.653-.908-13.667 1.875-3.984 2.813-6.357 7.383-6.357 12.261v78.281l-15 15v216.211h45z" fill="#465a61"/></g></svg>