<svg id="Capa_1" enable-background="new 0 0 512.034 512.034" height="512" viewBox="0 0 512.034 512.034" width="512" xmlns="http://www.w3.org/2000/svg"><g><g><circle cx="173.088" cy="497" fill="#465a61" r="15"/></g><g><circle cx="23.088" cy="407" fill="#465a61" r="15"/></g><g><circle cx="83.088" cy="437" fill="#465a61" r="15"/></g><g><path d="m113.088 512h-60c-24.814 0-45-20.186-45-45 0-8.291 6.709-15 15-15s15 6.709 15 15c0 8.276 6.724 15 15 15h60c8.291 0 15 6.709 15 15s-6.709 15-15 15z" fill="#465a61"/></g><path d="m495.664 1.582c-7.456-3.691-16.421-.703-20.142 6.694l-142.998 285.498c-4.409 8.818.009 16.562 6.65 19.953 6.714 3.43 15.701 2.411 20.186-6.506l142.998-285.498c3.706-7.412.703-16.421-6.694-20.141z" fill="#465a61"/><path d="m359.36 307.221 142.998-285.498c3.706-7.412.703-16.421-6.694-20.142l-156.49 312.146c6.715 3.43 15.702 2.412 20.186-6.506z" fill="#3b4a51"/><path d="m392.888 307.199-40.331-20.165-40.069-20.035c-22.2-11.1-49.2-2.1-60.601 20.101l-6.599 13.2 28.751 44.429 42.682 13.784 40.856 13.196 48.51 9.291 6.899-13.5c11.102-21.902 2.102-49.201-20.098-60.301z" fill="#f8bb5e"/><path d="m406.088 381 6.899-13.5c11.1-21.901 2.1-49.2-20.099-60.3l-40.331-20.165-35.836 71.479 40.856 13.196z" fill="#ff9f00"/><path d="m325.679 340.645-80.39-40.345-6.601 13.499c-22.421 48.051-91.005 62.651-129.6 72.301-6.299.899-11.699 5.7-12.9 12.299-.899 6.601 2.401 12.9 8.101 15.901l71.7 36c12.9 6.299 27.299 9 41.1 7.5-1.5 6.599 1.5 13.799 8.099 17.098l26.51 13.315 40.391 22.286c5.7 2.699 12.299 1.8 16.8-2.401 28.332-24.282 71.713-75.826 90.601-113.601l6.598-13.497z" fill="#ffe470"/><path d="m308.889 508.099c28.332-24.282 71.713-75.826 90.601-113.601l6.598-13.498-80.409-40.355-73.982 147.568 40.391 22.286c5.701 2.7 12.3 1.801 16.801-2.4z" fill="#f8bb5e"/></g></svg>